<?xml version="1.0" encoding="UTF-8"?>
<svg id="Ebene_1" xmlns="http://www.w3.org/2000/svg" version="1.1" viewBox="0 0 100 100">
  <!-- Generator: Adobe Illustrator 30.3.0, SVG Export Plug-In . SVG Version: 2.1.3 Build 182)  -->
  <defs>
    <style>
      .st0 {
        fill: #64f40f;
      }

      .st1 {
        fill: #0a0b0e;
      }
    </style>
  </defs>
  <rect class="st1" y="0" width="100.4" height="100"/>
  <path class="st0" d="M83.4,72.3c-.1-.6-.4-.9-.7-1.4l-2.3-4-2.3-4-1.1-2-3.1-5.5-1-1.7-2-3.6-.7-1.2-5.2-9.1-.8-1.5-.9-1.5c0-.1-.3-.4-.4-.3l-.3.4-1.2,1.2-.9.9-1.3,1.4-1.7-2.8-1.3-2.3-2.6-4.6-.8-1.4-2.3-4-1-1.7-.6-1-.6-1-.7-1.2-.2-.4c0,0-.3,0-.4.2l-1.5,2.6-.8,1.5-.7,1.2-.8,1.3-1.1,2-3,5.3-1.4,2.4-1.3,2.2-.9,1.5-1.4,2.5-1.1,2-1.3,2.2-1.1,1.8-.5,1s-.2.5-.3.6l-.3.5-1,1.7-3,5.3-1,1.7-.7,1.2-1.4,2.4-1.3,2.3-.7,1.2-1.6,2.8-.6.9-.4.8-.6,1.1h66ZM24.7,65l18.7-32.7,3.6-6.3c.1-.3.3-.5.5-.5v33.7s2-2.4,2-2.4l11.3-13.4c.7-.9,1.3-1.7,2.2-2.5v28.2c0,.2-.2.6-.3.6h-8.5s0-8.7,0-8.7l-.2-.3c0,0-.2.2-.2.3l-4.6,8c-.1.2-.3.6-.6.6h-10.8c-.2-.2-.2-.5-.2-.8v-12.2c0,0-7.5,13-7.5,13h-8.2s2.6-4.7,2.6-4.7Z"/>
</svg>